<svg xmlns="http://www.w3.org/2000/svg" width="48" height="48" viewBox="0 0 48 48">
    <defs>
        <style>
            .cls-1{fill:#ff3b30}.cls-2{fill:none}.cls-3,.cls-4{stroke:none}.cls-4{fill:#fff}
        </style>
    </defs>
    <g id="ic_medications" transform="translate(-181 -223)">
        <path id="Path_2846" d="M24 0A24 24 0 1 1 0 24 24 24 0 0 1 24 0z" class="cls-1" transform="translate(181 223)"/>
        <g id="Group_4730" transform="translate(114 -436.443)">
            <g id="tablet-and-pill" class="cls-2">
                <path d="M36.427 34.266a5.983 5.983 0 0 1 0-11.91zm1.322-11.91v11.91a5.983 5.983 0 0 0 0-11.91z" class="cls-3" transform="translate(58.479 661.745)"/>
                <path d="M36.427 34.266v-11.91c-3.01.325-5.377 2.848-5.402 5.905-.025 3.099 2.348 5.675 5.402 6.005m1.322 0c3.01-.326 5.378-2.85 5.403-5.906.025-3.098-2.349-5.675-5.403-6.004v11.91m-.322 1.113l-.34-.036-.338.036v-.073l-.429-.046a7.078 7.078 0 0 1-4.49-2.287 6.932 6.932 0 0 1-1.805-4.72 6.93 6.93 0 0 1 1.847-4.647 7.084 7.084 0 0 1 4.448-2.244l.43-.047v-.073l.34.037.337-.037v.073l.43.046a7.078 7.078 0 0 1 4.49 2.287 6.932 6.932 0 0 1 1.805 4.72 6.93 6.93 0 0 1-1.847 4.647 7.084 7.084 0 0 1-4.448 2.244l-.43.047v.073z" class="cls-4" transform="translate(58.479 661.745)"/>
            </g>
            <g id="tablet-and-pill-2" class="cls-2">
                <path d="M19.637 5.09l-5.151 3.543a4.621 4.621 0 0 0-1.2 6.373l.235.349a4.5 4.5 0 0 0 6.3 1.214l5.151-3.544zm12.78-2.732l-.235-.349a4.5 4.5 0 0 0-6.3-1.214l-5.151 3.543 5.335 7.936 5.151-3.544a4.626 4.626 0 0 0 1.2-6.372z" class="cls-3" transform="translate(64.5 669.443)"/>
                <path d="M28.428 0c-.91 0-1.79.275-2.546.794l-5.151 3.544 5.334 7.936 5.152-3.543c2.067-1.422 2.606-4.281 1.2-6.373l-.235-.35A4.52 4.52 0 0 0 28.428 0m-8.79 5.09l-5.152 3.543a4.562 4.562 0 0 0-1.905 2.936 4.6 4.6 0 0 0 .705 3.438l.235.349a4.52 4.52 0 0 0 3.754 2.008c.91 0 1.79-.274 2.546-.794l5.151-3.544-5.335-7.936M28.428-1c1.839 0 3.553.916 4.584 2.45l.235.35c1.71 2.544 1.054 6.023-1.464 7.755l-5.15 3.543-.279.192-.815.56-5.151 3.544c-.923.635-2 .97-3.113.97a5.519 5.519 0 0 1-4.584-2.45l-.235-.35a5.594 5.594 0 0 1-.857-4.18 5.555 5.555 0 0 1 2.32-3.574l5.152-3.544.832-.573.261-.18L25.315-.03c.923-.634 2-.97 3.113-.97z" class="cls-4" transform="translate(64.5 669.443)"/>
            </g>
        </g>
    </g>
</svg>
